<?xml version="1.0" standalone="no"?>
<!DOCTYPE svg PUBLIC "-//W3C//DTD SVG 20010904//EN"
 "http://www.w3.org/TR/2001/REC-SVG-20010904/DTD/svg10.dtd">
<svg version="1.0" xmlns="http://www.w3.org/2000/svg"
 width="1920.000000pt" height="659.000000pt" viewBox="0 0 1920.000000 659.000000"
 preserveAspectRatio="xMidYMid meet">

<g transform="translate(0.000000,659.000000) scale(0.100000,-0.100000)"
fill="#000000" stroke="none">
<path d="M301 6560 c-1 -8 193 -238 431 -510 237 -272 757 -871 1157 -1330
399 -459 767 -882 817 -940 51 -58 166 -190 258 -295 l165 -190 -387 -3 c-213
-1 -392 0 -398 2 -6 2 -81 82 -166 178 -85 95 -433 484 -773 863 -340 380
-726 811 -858 958 -132 147 -242 265 -245 263 -3 -3 1 -13 9 -23 14 -18 1363
-1527 1773 -1983 l229 -255 -399 -3 -398 -2 -61 67 c-34 38 -113 125 -176 195
-627 696 -975 1075 -977 1067 -2 -6 34 -51 79 -102 46 -51 143 -157 215 -237
72 -80 245 -271 384 -425 140 -154 291 -322 338 -373 46 -50 104 -115 129
-142 l45 -50 -406 0 -405 0 -188 205 c-103 113 -189 201 -191 195 -2 -5 76
-96 173 -202 l177 -193 -176 -3 c-231 -3 -232 -21 -2 -24 l175 -3 -175 -190
c-96 -104 -174 -196 -174 -204 0 -7 17 5 37 28 21 23 106 115 188 206 l150
164 403 1 c221 0 402 -2 402 -5 0 -5 -302 -339 -924 -1024 -242 -267 -261
-289 -253 -297 2 -3 236 250 518 563 283 312 554 611 603 665 l89 98 400 0
399 0 -33 -38 c-57 -63 -983 -1098 -1599 -1786 -206 -230 -377 -426 -378 -435
-3 -13 0 -12 16 4 19 19 1477 1649 1841 2057 l176 198 398 0 398 0 -129 -147
c-71 -82 -256 -294 -412 -473 -155 -179 -337 -388 -404 -464 -66 -77 -155
-178 -196 -226 -65 -75 -529 -608 -1434 -1649 -136 -156 -244 -286 -241 -289
3 -3 16 5 29 19 20 21 419 479 626 719 41 48 372 428 735 845 363 417 694 797
735 845 370 429 677 780 703 804 26 24 28 30 16 40 -9 6 -274 308 -590 671
-918 1055 -1428 1642 -1509 1735 -41 48 -223 257 -405 465 -181 209 -335 386
-342 394 -11 14 -12 14 -12 1z"/>
</g>
</svg>
