<?xml version="1.0" standalone="no"?>
<!DOCTYPE svg PUBLIC "-//W3C//DTD SVG 20010904//EN"
 "http://www.w3.org/TR/2001/REC-SVG-20010904/DTD/svg10.dtd">
<svg version="1.0" xmlns="http://www.w3.org/2000/svg"
 width="288.000000pt" height="655.000000pt" viewBox="0 0 288.000000 655.000000"
 preserveAspectRatio="xMidYMid meet">

<g transform="translate(0.000000,655.000000) scale(0.100000,-0.100000)"
fill="#000000" stroke="none">
<path d="M0 3275 l0 -3275 1440 0 1440 0 0 3260 c0 2167 -3 3260 -10 3260 -7
0 -10 -547 -10 -1621 0 -1511 -1 -1621 -17 -1608 -9 8 -255 289 -547 624 -672
771 -1438 1652 -1536 1765 -41 48 -219 252 -395 454 -176 202 -324 374 -328
382 -7 12 192 14 1408 14 937 0 1415 3 1415 10 0 7 -483 10 -1430 10 l-1430 0
0 -3275z m479 2701 c234 -269 716 -823 1070 -1230 684 -787 859 -988 1118
-1285 l162 -186 -387 -3 c-213 -1 -392 0 -398 2 -6 2 -69 69 -140 149 -71 79
-433 483 -804 897 -371 415 -766 855 -877 979 l-202 226 -1 484 c0 449 1 482
17 470 9 -8 208 -234 442 -503z m353 -1383 c442 -494 888 -992 992 -1108 l188
-210 -398 -3 -399 -3 -25 29 c-14 16 -104 116 -201 223 -351 387 -865 956
-916 1014 l-53 59 0 448 c0 246 2 448 4 448 3 0 366 -404 808 -897z m-576
-289 c98 -109 291 -322 428 -473 137 -152 287 -318 334 -369 46 -50 104 -115
129 -142 l45 -50 -405 0 -406 0 -180 197 -181 197 0 449 0 449 28 -30 c16 -17
109 -120 208 -228z m-85 -831 c79 -86 152 -167 162 -180 l18 -23 -165 0 -166
0 0 180 c0 99 2 180 3 180 2 0 69 -71 148 -157z m139 -270 c-24 -27 -99 -108
-167 -180 l-123 -133 0 180 0 180 166 0 167 0 -43 -47z m870 42 c0 -5 -156
-178 -924 -1025 l-231 -255 -3 443 c-2 433 -2 444 18 470 11 14 91 103 178
198 l157 173 403 1 c221 0 402 -2 402 -5z m769 -67 c-35 -40 -107 -119 -159
-177 -52 -58 -190 -212 -305 -341 -628 -702 -1422 -1588 -1442 -1610 l-23 -25
0 455 1 455 480 530 c265 292 533 587 596 658 l116 127 400 0 399 0 -63 -72z
m749 -80 c-165 -189 -706 -810 -808 -928 -41 -48 -129 -149 -196 -226 -67 -76
-352 -405 -635 -730 -283 -325 -631 -725 -774 -889 l-260 -299 -3 484 -2 483
44 51 c24 28 398 447 831 931 434 484 868 969 964 1077 l176 198 398 0 398 0
-133 -152z m162 -1468 l0 -1610 -1406 0 c-1337 0 -1406 1 -1393 17 8 10 131
153 274 317 143 164 294 338 335 386 41 48 372 428 735 845 363 417 694 797
735 845 375 434 706 810 712 810 5 0 8 -724 8 -1610z"/>
</g>
</svg>
